<svg width="21" height="20" fill="none" xmlns="http://www.w3.org/2000/svg"><path d="M10.25 0c-5.513 0-10 4.486-10 10s4.487 10 10 10c5.514 0 10-4.486 10-10s-4.485-10-10-10Zm4.461 7.711c.005.1.007.2.007.3 0 3.04-2.314 6.547-6.549 6.547-1.3 0-2.51-.38-3.528-1.034a4.651 4.651 0 0 0 3.408-.952 2.304 2.304 0 0 1-2.15-1.6 2.319 2.319 0 0 0 1.039-.038 2.302 2.302 0 0 1-1.846-2.257v-.029c.31.172.665.276 1.042.288a2.3 2.3 0 0 1-.712-3.073 6.535 6.535 0 0 0 4.744 2.405 2.302 2.302 0 0 1 3.922-2.1 4.594 4.594 0 0 0 1.462-.558 2.312 2.312 0 0 1-1.013 1.274c.466-.056.91-.18 1.322-.363-.307.461-.697.867-1.148 1.19Z" fill="#000"/></svg>