<svg width="33" height="46" fill="none" xmlns="http://www.w3.org/2000/svg"><path d="M25.01 43.358c-1.945 0-3.42-.54-4.429-1.62-.983-1.08-1.476-2.628-1.476-4.644v-2.052h3.744v2.232c0 1.656.684 2.484 2.052 2.484.672 0 1.177-.204 1.512-.612.36-.432.54-1.176.54-2.232v-2.052c0-1.152-.203-1.968-.611-2.448-.409-.504-1.069-.756-1.98-.756H23.03v-3.6h1.44c.792 0 1.38-.204 1.764-.612.407-.408.611-1.092.611-2.052v-1.836c0-.864-.18-1.5-.54-1.908-.36-.408-.84-.612-1.44-.612-1.271 0-1.907.78-1.907 2.34v1.656h-3.744v-1.332c0-2.016.492-3.564 1.476-4.644 1.008-1.08 2.447-1.62 4.32-1.62 1.895 0 3.335.54 4.32 1.62.984 1.056 1.476 2.592 1.476 4.608v.9c0 1.368-.229 2.472-.684 3.312-.456.816-1.165 1.404-2.125 1.764v.072c1.032.384 1.776 1.008 2.233 1.872.456.864.683 1.968.683 3.312v2.232c0 2.016-.503 3.564-1.512 4.644-.983 1.056-2.448 1.584-4.392 1.584Z" fill="#000"/><path fill="#333" d="m17.34.998.927.374L.927 44.291 0 43.916z"/></svg>