<svg width="33" height="46" fill="none" xmlns="http://www.w3.org/2000/svg"><path d="M19.322 40.262c0-1.8.288-3.336.864-4.608.576-1.296 1.608-2.724 3.096-4.284 1.463-1.56 2.471-2.892 3.023-3.996a7.376 7.376 0 0 0 .864-3.456c0-1.08-.18-1.824-.54-2.232-.335-.432-.84-.648-1.512-.648-1.367 0-2.052.828-2.052 2.484v2.7h-3.744v-2.448c0-2.04.505-3.6 1.512-4.68 1.009-1.104 2.473-1.656 4.393-1.656s3.384.552 4.392 1.656c1.008 1.08 1.512 2.64 1.512 4.68 0 1.536-.372 3.036-1.116 4.5-.72 1.464-1.98 3.144-3.78 5.04-1.177 1.248-1.969 2.268-2.377 3.06a5.214 5.214 0 0 0-.611 2.484v.54h7.524v3.6H19.322v-2.736Z" fill="#000"/><path fill="#333" d="m17.34.998.927.374L.927 44.291 0 43.916z"/></svg>